<svg xmlns="http://www.w3.org/2000/svg" xmlns:xlink="http://www.w3.org/1999/xlink" xml:space="preserve" style="shape-rendering:geometricPrecision;text-rendering:geometricPrecision;image-rendering:optimizeQuality;" viewBox="0 0 100 100" x="0px" y="0px" fill-rule="evenodd" clip-rule="evenodd"><defs><style type="text/css">
   
    .fil0 {fill:black}
   
  </style></defs><g><path class="fil0" d="M17.8041 8.68944l4.77996 0.0590556 0.240947 5.02327 52.8028 4.58035 0.00826778 -1.3193 1.53663 0.00826778 -0.0389767 -0.347247 4.63704 0.0307089 0.270475 2.18388 6.6036 0.572839 0.77599 13.5781 -5.62445 0.05315 1.03938 8.40125 6.43115 -0.124017 1.1693 14.5466 -5.73193 0.693313 3.14058 25.3963 -4.79768 0.724021 -0.588194 -0.400397 -2.8016 -25.1104 -1.07599 0.129922 0.132285 17.1179 -4.88153 0.636619 -0.54213 -0.353152 0.100394 -16.7741 -50.1453 6.06028 1.26851 26.3482 -5.98233 0.905913 -0.688588 -0.501972 -0.941346 -25.9856 -1.89687 0.229136 -1.05355 15.9249 -6.078 0.796069 -0.635438 -0.440555 1.23426 -15.4903 -1.81064 0.218506 0.00590556 -23.0647 3.63074 -0.0708667 0.728746 -9.1418 -5.46264 0.0519689 0.582288 -21.3368 6.53155 0.566934 0.312995 -3.93192 1.8945 0.01063 -0.0153545 -0.434649 0.934259 -0.0200789zm33.2341 19.2864c0.592918,0.01063 1.18584,0.0236222 1.78348,0.0342522 1.25788,0.0224411 2.48033,1.87088 2.35396,3.07916 -0.30827,2.92443 -0.625989,5.86186 -0.933078,8.80873 -0.200789,1.92403 -0.555122,2.26065 -1.98781,2.3327 -1.44214,0.0732289 -1.71261,-0.226773 -2.0197,-2.17561 -0.470082,-2.98113 -0.943708,-5.97643 -1.41497,-8.98708 -0.196065,-1.24607 0.960244,-3.11341 2.21813,-3.09215zm1.2319 15.6025c2.86774,-0.165356 2.95278,4.08665 0.0968512,4.30633 -2.86183,0.220868 -2.96931,-4.14098 -0.0968512,-4.30633zm-17.9387 -7.09376c5.26421,-5.82288 9.78669,-10.6017 15.358,-16.0371 1.11024,-1.08308 2.97522,-0.959063 4.15161,0.226773 5.46382,5.50752 10.2473,10.0111 16.0371,15.058 1.1693,1.0193 1.20946,2.68703 0.0909456,3.77956 -5.54768,5.42957 -10.1068,10.2036 -15.3474,16.0371 -1.12914,1.2567 -3.00357,1.49883 -4.16932,0.483075 -5.8028,-5.05752 -10.5603,-9.54929 -16.0336,-15.0674 -1.17639,-1.18584 -1.21418,-3.21853 -0.0874023,-4.47996zm0.884653 0.909456c5.28075,-5.86068 9.77724,-10.5745 15.3521,-16.0407 0.647249,-0.634257 1.74332,-0.569296 2.42955,0.121655 5.46264,5.50989 10.2473,10.0158 16.0324,15.0674 0.681501,0.59528 0.709848,1.57678 0.0578745,2.21458 -5.48036,5.36225 -10.1788,10.2709 -15.3521,16.036 -0.660241,0.734651 -1.75631,0.868117 -2.43427,0.274018 -5.91028,-5.16854 -10.4458,-9.44299 -16.0371,-15.0615 -0.69095,-0.694494 -0.711029,-1.87561 -0.0484256,-2.61144zm-20.0801 25.9537l18.423 -18.9025 2.17561 -0.04252c-0.631895,-0.628351 -1.26379,-1.26143 -1.8945,-1.89687l-9.62252 0.187797 -0.433468 -9.01188 11.3186 -0.107481c4.74334,-5.16146 9.25165,-9.76189 14.2714,-14.5773 1.36064,-1.30395 2.62207,-1.54608 4.00633,-0.517327l0.270475 -0.240947 10.6099 0.920086 -5.18626 4.92996 4.00633 3.85042 8.39652 -8.15439 10.0076 0.868117 -9.91307 10.7906 -4.64177 0.0437011c2.19096,1.97954 1.60159,1.77049 2.98585,1.75749l5.62327 -0.05315 -0.0507878 8.504 -5.93863 0.115749c-2.13191,2.10474 -4.26145,4.25909 -6.37092,6.47131 -2.79097,2.92679 -5.56304,5.96461 -8.33156,9.07684 -1.22481,1.37718 -2.0386,1.99135 -3.09569,1.56261l-11.4343 1.3819 5.71304 -6.16422 -5.07642 -4.66775 -11.4745 12.1418 -14.3434 1.73387zm6.87761 -18.6781l-11.5217 11.595 0.00354333 -11.3706 11.5182 -0.224411zm39.6003 13.0607l12.0863 -14.067 10.2698 -0.199608 -9.85047 12.756 -12.5056 1.51064zm18.495 -2.23466l9.18078 -12.1347 0.288191 -0.00590556 0.875204 10.8898 -10.3442 1.2508zm-66.1694 -23.5065l18.4171 -15.5978 12.0592 1.04528 -16.4623 14.4202 -14.0139 0.132285zm7.16462 -16.5745l-11.5123 9.54574 0.28701 -10.519 11.2253 0.973236zm56.3189 15.9734l9.24692 -10.2851 0.279923 0.0236222 0.581107 10.1646 -10.108 0.0968512z"/></g></svg>