<svg id="layer_1" data-name="layer 1" xmlns="http://www.w3.org/2000/svg" xmlns:xlink="http://www.w3.org/1999/xlink" viewBox="0 0 1920 1080"><defs><style>.cls-1{fill:url(#gradient_6);}.cls-2{fill:url(#gradient_6-2);}.cls-3{fill:url(#gradient_6-3);}.cls-4{fill:url(#gradient_6-4);}.cls-5{fill:url(#gradient_6-5);}.cls-6{fill:url(#gradient_6-6);}.cls-7{fill:url(#gradient_6-7);}</style><linearGradient id="gradient_6" x1="452" y1="533.89" x2="700.96" y2="533.89" gradientUnits="userSpaceOnUse"><stop offset="0"/><stop offset="1" stop-opacity="0"/></linearGradient><linearGradient id="gradient_6-2" x1="605.21" y1="533.89" x2="854.17" y2="533.89" xlink:href="#gradient_6"/><linearGradient id="gradient_6-3" x1="758.42" y1="533.89" x2="1007.38" y2="533.89" xlink:href="#gradient_6"/><linearGradient id="gradient_6-4" x1="911.62" y1="533.89" x2="1160.58" y2="533.89" xlink:href="#gradient_6"/><linearGradient id="gradient_6-5" x1="1064.83" y1="646.33" x2="1313.79" y2="646.33" xlink:href="#gradient_6"/><linearGradient id="gradient_6-6" x1="1064.83" y1="421.44" x2="1313.79" y2="421.44" xlink:href="#gradient_6"/><linearGradient id="gradient_6-7" x1="1218.04" y1="533.89" x2="1467" y2="533.89" xlink:href="#gradient_6"/></defs><title>Direction</title><path class="cls-1" d="M452,309H701a0,0,0,0,1,0,0V509.81a249,249,0,0,1-249,249h0a0,0,0,0,1,0,0V309A0,0,0,0,1,452,309Z"/><path class="cls-2" d="M729.69,309h0A124.48,124.48,0,0,1,854.17,433.48V758.77a0,0,0,0,1,0,0h-249a0,0,0,0,1,0,0V433.48A124.48,124.48,0,0,1,729.69,309Z"/><path class="cls-3" d="M758.42,309h0a249,249,0,0,1,249,249V758.77a0,0,0,0,1,0,0h0a249,249,0,0,1-249-249V309A0,0,0,0,1,758.42,309Z"/><path class="cls-4" d="M911.62,309h0a249,249,0,0,1,249,249V758.77a0,0,0,0,1,0,0h0a249,249,0,0,1-249-249V309A0,0,0,0,1,911.62,309Z"/><rect class="cls-5" x="1064.83" y="533.89" width="248.96" height="224.89"/><rect class="cls-6" x="1064.83" y="309" width="248.96" height="224.89" rx="112.44"/><path class="cls-7" d="M1218,309h0a249,249,0,0,1,249,249V758.77a0,0,0,0,1,0,0H1218a0,0,0,0,1,0,0V309A0,0,0,0,1,1218,309Z"/></svg>
