<svg xmlns="http://www.w3.org/2000/svg" viewBox="0 0 309.85 337.78"><defs><style>.cls-1{fill:#e0e0e0;}.cls-2{fill:none;}.cls-2,.cls-3{stroke:#000;stroke-linejoin:round;stroke-width:4px;}.cls-3{fill:#fff;}</style></defs><title>logo-new</title><g id="bottom-fill"><polygon points="57.18 335.78 307.85 211.12 307.85 154.59 113.03 255.4 113.03 151.21 57.18 115.76 57.18 335.78"/></g><g id="left-fill"><polygon class="cls-1" points="2 30.61 2 299.68 57.18 335.78 57.18 115.76 164.04 183.58 216.57 157.31 2 30.61"/></g><g id="left-outline"><polygon class="cls-2" points="2 30.61 2 299.68 57.18 335.78 57.18 115.76 164.04 183.58 216.57 157.31 2 30.61"/></g><g id="bottom-outline"><polygon class="cls-2" points="57.18 335.78 307.85 211.12 307.85 154.59 113.03 255.4 113.03 151.21 57.18 115.76 57.18 335.78"/></g><g id="top"><polygon class="cls-3" points="2 30.61 66.03 2 307.85 154.59 113.03 255.4 113.03 209.08 216.57 157.31 2 30.61"/></g></svg>